<svg xmlns="http://www.w3.org/2000/svg" version="1.1" xmlns:xlink="http://www.w3.org/1999/xlink" width="512" height="512" x="0" y="0" viewBox="0 0 24 24" style="enable-background:new 0 0 512 512" xml:space="preserve" class=""><g><path fill="#e18e00" fill-rule="evenodd" d="M18 19a2 2 0 1 0 0-4 2 2 0 0 0 0 4zm0 2a4 4 0 1 0 0-8 4 4 0 0 0 0 8zM6 19a2 2 0 1 0 0-4 2 2 0 0 0 0 4zm0 2a4 4 0 1 0 0-8 4 4 0 0 0 0 8z" clip-rule="evenodd" opacity="1" data-original="#52d32b" class=""></path><path fill="#e18e00" d="M9.5 4a1 1 0 0 1 1-1h1.813a2 2 0 0 1 1.867 1.282l4.753 12.359a1 1 0 0 1-1.866.718l-2.28-5.927-8.173 6.357a1 1 0 0 1-1.228-1.578l3.657-2.844-3.875-5.812a1 1 0 1 1 1.664-1.11l3.794 5.69 3.411-2.653L12.313 5H10.5a1 1 0 0 1-1-1z" opacity="1" data-original="#131d10" class=""></path><path fill="#e18e00" fill-rule="evenodd" d="M3 7a1 1 0 0 1 1-1h4a1 1 0 0 1 0 2H4a1 1 0 0 1-1-1z" clip-rule="evenodd" opacity="1" data-original="#52d32b" class=""></path></g></svg>